<mxfile host="Electron" modified="2023-07-17T19:28:20.369Z" agent="Mozilla/5.0 (Windows NT 10.0; Win64; x64) AppleWebKit/537.36 (KHTML, like Gecko) draw.io/21.5.1 Chrome/112.0.5615.204 Electron/24.6.0 Safari/537.36" etag="1wAN3TnqxbAiqV6NRZ6B" version="21.5.1" type="device">
  <diagram name="Page-1" id="IrGB5dRQijirezRQd1Ws">
    <mxGraphModel dx="792" dy="845" grid="1" gridSize="10" guides="1" tooltips="1" connect="1" arrows="1" fold="1" page="1" pageScale="1" pageWidth="827" pageHeight="1169" math="0" shadow="0">
      <root>
        <mxCell id="0" />
        <mxCell id="1" parent="0" />
        <mxCell id="IRxbwqodbVuu4aKaA72q-13" value="Microservices" style="fillColor=none;strokeColor=#147EBA;dashed=1;verticalAlign=top;fontStyle=1;fontColor=#147EBA;whiteSpace=wrap;html=1;fontSize=20;" vertex="1" parent="1">
          <mxGeometry x="470" y="120" width="390" height="260" as="geometry" />
        </mxCell>
        <mxCell id="IRxbwqodbVuu4aKaA72q-11" style="edgeStyle=orthogonalEdgeStyle;rounded=0;orthogonalLoop=1;jettySize=auto;html=1;" edge="1" parent="1" source="IRxbwqodbVuu4aKaA72q-1" target="IRxbwqodbVuu4aKaA72q-2">
          <mxGeometry relative="1" as="geometry" />
        </mxCell>
        <mxCell id="IRxbwqodbVuu4aKaA72q-1" value="Client" style="sketch=0;outlineConnect=0;fontColor=#232F3E;gradientColor=none;fillColor=#232F3D;strokeColor=none;dashed=0;verticalLabelPosition=bottom;verticalAlign=top;align=center;html=1;fontSize=12;fontStyle=0;aspect=fixed;pointerEvents=1;shape=mxgraph.aws4.user;" vertex="1" parent="1">
          <mxGeometry x="170" y="221" width="78" height="78" as="geometry" />
        </mxCell>
        <mxCell id="IRxbwqodbVuu4aKaA72q-8" style="edgeStyle=orthogonalEdgeStyle;rounded=0;orthogonalLoop=1;jettySize=auto;html=1;" edge="1" parent="1" source="IRxbwqodbVuu4aKaA72q-2" target="IRxbwqodbVuu4aKaA72q-4">
          <mxGeometry relative="1" as="geometry" />
        </mxCell>
        <mxCell id="IRxbwqodbVuu4aKaA72q-9" style="edgeStyle=orthogonalEdgeStyle;rounded=0;orthogonalLoop=1;jettySize=auto;html=1;entryX=0;entryY=0.5;entryDx=0;entryDy=0;" edge="1" parent="1" source="IRxbwqodbVuu4aKaA72q-2" target="IRxbwqodbVuu4aKaA72q-5">
          <mxGeometry relative="1" as="geometry" />
        </mxCell>
        <mxCell id="IRxbwqodbVuu4aKaA72q-10" style="edgeStyle=orthogonalEdgeStyle;rounded=0;orthogonalLoop=1;jettySize=auto;html=1;entryX=0;entryY=0.5;entryDx=0;entryDy=0;" edge="1" parent="1" source="IRxbwqodbVuu4aKaA72q-2" target="IRxbwqodbVuu4aKaA72q-3">
          <mxGeometry relative="1" as="geometry" />
        </mxCell>
        <mxCell id="IRxbwqodbVuu4aKaA72q-2" value="API Gateway" style="rounded=1;whiteSpace=wrap;html=1;fillColor=#b0e3e6;strokeColor=#0e8088;" vertex="1" parent="1">
          <mxGeometry x="320" y="230" width="120" height="60" as="geometry" />
        </mxCell>
        <mxCell id="IRxbwqodbVuu4aKaA72q-12" style="edgeStyle=orthogonalEdgeStyle;rounded=0;orthogonalLoop=1;jettySize=auto;html=1;entryX=0;entryY=0.5;entryDx=0;entryDy=0;" edge="1" parent="1" source="IRxbwqodbVuu4aKaA72q-3" target="IRxbwqodbVuu4aKaA72q-6">
          <mxGeometry relative="1" as="geometry" />
        </mxCell>
        <mxCell id="IRxbwqodbVuu4aKaA72q-3" value="Service 1" style="rounded=1;whiteSpace=wrap;html=1;fillColor=#dae8fc;strokeColor=#6c8ebf;" vertex="1" parent="1">
          <mxGeometry x="540" y="158" width="120" height="60" as="geometry" />
        </mxCell>
        <mxCell id="IRxbwqodbVuu4aKaA72q-4" value="Service 2" style="rounded=1;whiteSpace=wrap;html=1;fillColor=#d5e8d4;strokeColor=#82b366;" vertex="1" parent="1">
          <mxGeometry x="540" y="230" width="120" height="60" as="geometry" />
        </mxCell>
        <mxCell id="IRxbwqodbVuu4aKaA72q-5" value="Service 3" style="rounded=1;whiteSpace=wrap;html=1;fillColor=#f8cecc;strokeColor=#b85450;" vertex="1" parent="1">
          <mxGeometry x="540" y="300" width="120" height="60" as="geometry" />
        </mxCell>
        <mxCell id="IRxbwqodbVuu4aKaA72q-6" value="Service 1.1&amp;nbsp;" style="rounded=1;whiteSpace=wrap;html=1;fillColor=#fff2cc;strokeColor=#d6b656;" vertex="1" parent="1">
          <mxGeometry x="720" y="158" width="120" height="60" as="geometry" />
        </mxCell>
        <mxCell id="IRxbwqodbVuu4aKaA72q-17" style="edgeStyle=orthogonalEdgeStyle;rounded=0;orthogonalLoop=1;jettySize=auto;html=1;" edge="1" parent="1" source="IRxbwqodbVuu4aKaA72q-14" target="IRxbwqodbVuu4aKaA72q-6">
          <mxGeometry relative="1" as="geometry" />
        </mxCell>
        <mxCell id="IRxbwqodbVuu4aKaA72q-14" value="DevOps" style="sketch=0;outlineConnect=0;fontColor=#232F3E;gradientColor=none;fillColor=#232F3D;strokeColor=none;dashed=0;verticalLabelPosition=bottom;verticalAlign=top;align=center;html=1;fontSize=12;fontStyle=0;aspect=fixed;pointerEvents=1;shape=mxgraph.aws4.user;" vertex="1" parent="1">
          <mxGeometry x="940" y="149" width="78" height="78" as="geometry" />
        </mxCell>
        <mxCell id="IRxbwqodbVuu4aKaA72q-20" style="edgeStyle=orthogonalEdgeStyle;rounded=0;orthogonalLoop=1;jettySize=auto;html=1;" edge="1" parent="1" source="IRxbwqodbVuu4aKaA72q-15" target="IRxbwqodbVuu4aKaA72q-5">
          <mxGeometry relative="1" as="geometry" />
        </mxCell>
        <mxCell id="IRxbwqodbVuu4aKaA72q-15" value="Developer" style="sketch=0;outlineConnect=0;fontColor=#232F3E;gradientColor=none;fillColor=#232F3D;strokeColor=none;dashed=0;verticalLabelPosition=bottom;verticalAlign=top;align=center;html=1;fontSize=12;fontStyle=0;aspect=fixed;pointerEvents=1;shape=mxgraph.aws4.user;" vertex="1" parent="1">
          <mxGeometry x="940" y="291" width="78" height="78" as="geometry" />
        </mxCell>
        <mxCell id="IRxbwqodbVuu4aKaA72q-22" value="&lt;b&gt;&lt;font style=&quot;font-size: 14px;&quot;&gt;Management / Orchestration&lt;/font&gt;&lt;/b&gt;" style="rounded=1;whiteSpace=wrap;html=1;fillColor=#b0e3e6;strokeColor=#0e8088;" vertex="1" parent="1">
          <mxGeometry x="470" y="80" width="390" height="30" as="geometry" />
        </mxCell>
      </root>
    </mxGraphModel>
  </diagram>
</mxfile>
